<svg width="60" height="40" viewBox="0 0 60 40" fill="none" xmlns="http://www.w3.org/2000/svg">
<path d="M26.0675 4.49218C26.0675 3.75715 26.5986 3.66903 26.829 3.19995" stroke="black" stroke-width="6" stroke-linecap="round"/>
<path d="M3.34584 13.1735C4.10733 13.1735 4.86882 13.1735 5.63031 13.1735C6.89842 13.1735 6.734 13.5355 7.29431 14.595C8.45689 16.7933 9.19303 19.5066 11.4684 20.8694C11.9718 21.1709 11.9393 21.6569 12.4837 21.9032C13.4021 22.3188 15.6538 20.1968 16.3194 19.7639C18.9625 18.0445 20.7913 17.3076 23.3741 15.4814C24.8845 14.4134 26.4135 13.2703 28.1687 12.6959C30.9162 11.7967 33.341 13.5212 35.3323 15.3234C36.6553 16.5208 37.7895 17.6587 38.8859 19.0853C39.4749 19.8514 40.3183 21.8246 41.1704 22.2584C41.4611 22.4064 44.1401 17.8521 44.4702 17.3479C46.347 14.4816 48.5218 12.0386 50.6749 9.40792C52.2752 7.45262 54.4728 6.11044 56.654 5" stroke="black" stroke-width="5" stroke-linecap="round"/>
<path d="M28 15.5078C28 20.6085 26.6172 30.2192 26.6172 35.2593" stroke="black" stroke-width="5" stroke-linecap="round"/>
</svg>
