<svg fill="none" stroke="currentColor" xmlns="http://www.w3.org/2000/svg">
<path d="M28.8568 24.3533C27.9376 25.268 25.8974 26.0655 24.7089 26.7993C21.9501 28.5026 19.4324 30.2687 17.0277 32.2153C15.1844 33.7075 12.7405 35.4054 11.4973 37.1728" />
<path d="M29.6086 23.7251C31.1235 25.6332 34.0749 27.1308 36.1174 28.4114C38.0033 29.5939 39.9592 30.5271 42.0189 31.3677C45.1539 32.6472 47.0998 35.3754 49.8155 37.1728" />
<path d="M29.9273 16.0838C31.7054 15.9656 34.6337 14.6315 35.9968 13.8156C38.4927 12.3216 40.691 10.5149 43.1098 8.93904C45.0502 7.67492 47.3631 5.59017 49.8155 4.93774" />
<path d="M27.6977 15.388C23.335 12.8221 19.2006 9.13064 15.3147 5.77857C14.4865 5.06423 12.4506 4.1762 11.5818 3.89233" />
<path d="M29.4494 17.3486L29.4565 23.6044" />
<path d="M30.3798 5.45362C30.0129 5.48184 29.7005 5.70961 29.5321 6.03578C29.1951 6.68876 29.9623 6.98973 30.4956 6.91072C31.0746 6.82494 31.8988 5.2085 31.0539 5.2085" />
</svg>
