<svg fill="none" stroke="currentColor" xmlns="http://www.w3.org/2000/svg">
<path d="M31 2.5C30 4 28.4859 6.03172 27.5 7C25.5559 8.90938 23.6147 11.2742 21.5 13C19.0457 15.003 17 16.5 14 17" />
<path d="M31 2.5C32.3336 6.50065 41.1358 12.4186 45.4305 13.4922" />
<path d="M30.5 15.5C28.566 18.5 24.2028 22.37 22.2806 24C20.147 25.8092 17.2436 27.5675 14.5 28.2769" />
<path d="M30.5 15.5C33.1562 18.1562 33.8333 19 36.5 21C38.5 22.5 42 24.5 45 25.5" />
<path d="M30 18C30 23.8065 30.4192 30.096 31.5 35.5" />
<path d="M14.5 37.5C25.3812 37.5 35.6515 36.5 46.5 36.5" />
</svg>
