<svg width="60" height="40" viewBox="0 0 60 40" fill="none" xmlns="http://www.w3.org/2000/svg">
<path d="M24.383 12.8301C24.383 6.89005 25.8749 2.5 32.066 2.5C36.0754 2.5 37.8649 6.34289 37.8649 9.8846C40.2413 3.96135 49.7212 5.06662 50.6935 11.3971C51.6837 17.8447 45.7913 19.9517 42.5416 20.4159C47.434 22.0943 51.648 31.1293 44.8189 35.3951C39.3261 38.8263 33.1936 33.0099 31.8113 27.6586C30.3275 33.0795 24.0556 40.1949 18.1446 36.2864C13.2473 33.0481 15.2494 26.7196 18.9128 22.6043C17.8298 22.6043 14.645 22.8775 12.1367 20.8107C10.0069 19.0558 8.00931 14.3112 11.3702 10.6094C14.8878 6.21742 20.538 6.78143 24.4648 10.6094" stroke="black" stroke-width="5" stroke-linecap="round" stroke-linejoin="round"/>
<path d="M30.8294 17.873C30.4625 17.9013 30.1501 18.129 29.9817 18.4552C29.6447 19.1082 30.4119 19.4092 30.9452 19.3302C31.5242 19.2444 32.3484 17.6279 31.5035 17.6279" stroke="black" stroke-width="5" stroke-linecap="round"/>
</svg>
